<?xml version="1.0" encoding="UTF-8"?>
<svg xmlns="http://www.w3.org/2000/svg" viewBox="0 0 1920 1080" width="1920" height="1080">
  <defs>
    <linearGradient id="bg" x1="0%" y1="0%" x2="100%" y2="100%">
      <stop offset="0%" stop-color="#0D0D0D"/>
      <stop offset="100%" stop-color="#1A1A2E"/>
    </linearGradient>
    <linearGradient id="accent" x1="0%" y1="0%" x2="100%" y2="0%">
      <stop offset="0%" stop-color="#00F5D4"/>
      <stop offset="100%" stop-color="#7B61FF"/>
    </linearGradient>
    <linearGradient id="titleGrad" x1="0%" y1="0%" x2="100%" y2="0%">
      <stop offset="0%" stop-color="#00F5D4"/>
      <stop offset="100%" stop-color="#7B61FF"/>
    </linearGradient>
  </defs>

  <rect width="1920" height="1080" fill="url(#bg)"/>
  <rect x="0" y="0" width="400" height="6" fill="url(#accent)"/>

  <!-- Decorative elements -->
  <circle cx="1650" cy="250" r="180" fill="none" stroke="#00F5D4" stroke-opacity="0.06" stroke-width="1"/>
  <circle cx="1650" cy="250" r="250" fill="none" stroke="#7B61FF" stroke-opacity="0.04" stroke-width="1"/>
  <circle cx="250" cy="850" r="120" fill="none" stroke="#7B61FF" stroke-opacity="0.05" stroke-width="1"/>

  <text x="120" y="120" style="font-family: 'Microsoft YaHei', 'SimHei', 'PingFang SC', sans-serif; font-size: 48px; font-weight: bold; fill: #FFFFFF;">总结与回顾</text>
  <rect x="120" y="140" width="200" height="4" fill="url(#accent)"/>

  <!-- Key takeaways -->
  <!-- 1 -->
  <path d="M 120,200 Q 120,188 132,188 L 560,188 Q 572,188 572,200 L 572,380 Q 572,392 560,392 L 132,392 Q 120,392 120,380 Z" fill="#FFFFFF" fill-opacity="0.04" stroke="#00F5D4" stroke-opacity="0.3" stroke-width="1"/>
  <circle cx="170" cy="230" r="16" fill="#00F5D4" fill-opacity="0.2"/>
  <text x="170" y="237" text-anchor="middle" style="font-family: 'Microsoft YaHei', 'SimHei', 'PingFang SC', sans-serif; font-size: 16px; font-weight: bold; fill: #00F5D4;">1</text>
  <text x="200" y="237" style="font-family: 'Microsoft YaHei', 'SimHei', 'PingFang SC', sans-serif; font-size: 18px; font-weight: bold; fill: #00F5D4;">认知篇</text>
  <text x="160" y="275" style="font-family: 'Microsoft YaHei', 'SimHei', 'PingFang SC', sans-serif; font-size: 14px; fill: #B4B4B4;">AI Agent = LLM + 感知</text>
  <text x="160" y="300" style="font-family: 'Microsoft YaHei', 'SimHei', 'PingFang SC', sans-serif; font-size: 14px; fill: #B4B4B4;">+ 记忆 + 规划 + 工具</text>
  <text x="160" y="335" style="font-family: 'Microsoft YaHei', 'SimHei', 'PingFang SC', sans-serif; font-size: 14px; fill: #B4B4B4;">LLM 本质是概率预测器</text>
  <text x="160" y="360" style="font-family: 'Microsoft YaHei', 'SimHei', 'PingFang SC', sans-serif; font-size: 14px; fill: #B4B4B4;">理解五大限制是基础</text>

  <!-- 2 -->
  <path d="M 600,200 Q 600,188 612,188 L 1040,188 Q 1052,188 1052,200 L 1052,380 Q 1052,392 1040,392 L 612,392 Q 600,392 600,380 Z" fill="#FFFFFF" fill-opacity="0.04" stroke="#7B61FF" stroke-opacity="0.3" stroke-width="1"/>
  <circle cx="650" cy="230" r="16" fill="#7B61FF" fill-opacity="0.2"/>
  <text x="650" y="237" text-anchor="middle" style="font-family: 'Microsoft YaHei', 'SimHei', 'PingFang SC', sans-serif; font-size: 16px; font-weight: bold; fill: #7B61FF;">2</text>
  <text x="680" y="237" style="font-family: 'Microsoft YaHei', 'SimHei', 'PingFang SC', sans-serif; font-size: 18px; font-weight: bold; fill: #7B61FF;">能力篇</text>
  <text x="640" y="275" style="font-family: 'Microsoft YaHei', 'SimHei', 'PingFang SC', sans-serif; font-size: 14px; fill: #B4B4B4;">感知: 5种方式获取信息</text>
  <text x="640" y="300" style="font-family: 'Microsoft YaHei', 'SimHei', 'PingFang SC', sans-serif; font-size: 14px; fill: #B4B4B4;">行动: Function Calling</text>
  <text x="640" y="335" style="font-family: 'Microsoft YaHei', 'SimHei', 'PingFang SC', sans-serif; font-size: 14px; fill: #B4B4B4;">记忆: 工作/长期/情景</text>
  <text x="640" y="360" style="font-family: 'Microsoft YaHei', 'SimHei', 'PingFang SC', sans-serif; font-size: 14px; fill: #B4B4B4;">Agent Loop 驱动一切</text>

  <!-- 3 -->
  <path d="M 1080,200 Q 1080,188 1092,188 L 1520,188 Q 1532,188 1532,200 L 1532,380 Q 1532,392 1520,392 L 1092,392 Q 1080,392 1080,380 Z" fill="#FFFFFF" fill-opacity="0.04" stroke="#FF6B6B" stroke-opacity="0.3" stroke-width="1"/>
  <circle cx="1130" cy="230" r="16" fill="#FF6B6B" fill-opacity="0.2"/>
  <text x="1130" y="237" text-anchor="middle" style="font-family: 'Microsoft YaHei', 'SimHei', 'PingFang SC', sans-serif; font-size: 16px; font-weight: bold; fill: #FF6B6B;">3</text>
  <text x="1160" y="237" style="font-family: 'Microsoft YaHei', 'SimHei', 'PingFang SC', sans-serif; font-size: 18px; font-weight: bold; fill: #FF6B6B;">实战篇</text>
  <text x="1120" y="275" style="font-family: 'Microsoft YaHei', 'SimHei', 'PingFang SC', sans-serif; font-size: 14px; fill: #B4B4B4;">MCP: AI 的 USB-C 协议</text>
  <text x="1120" y="300" style="font-family: 'Microsoft YaHei', 'SimHei', 'PingFang SC', sans-serif; font-size: 14px; fill: #B4B4B4;">Tools + Resources + Prompts</text>
  <text x="1120" y="335" style="font-family: 'Microsoft YaHei', 'SimHei', 'PingFang SC', sans-serif; font-size: 14px; fill: #B4B4B4;">编程工具: Cursor 主力</text>
  <text x="1120" y="360" style="font-family: 'Microsoft YaHei', 'SimHei', 'PingFang SC', sans-serif; font-size: 14px; fill: #B4B4B4;">CLI Agent 做自动化</text>

  <!-- Core formula -->
  <path d="M 300,440 Q 300,428 312,428 L 1608,428 Q 1620,428 1620,440 L 1620,530 Q 1620,542 1608,542 L 312,542 Q 300,542 300,530 Z" fill="#FFFFFF" fill-opacity="0.03" stroke="#7B61FF" stroke-opacity="0.3" stroke-width="1"/>
  <text x="960" y="475" text-anchor="middle" style="font-family: 'Microsoft YaHei', 'SimHei', 'PingFang SC', sans-serif; font-size: 22px; font-weight: bold; fill: #7B61FF;">核心公式</text>
  <text x="960" y="515" text-anchor="middle" style="font-family: 'Microsoft YaHei', 'SimHei', 'PingFang SC', sans-serif; font-size: 20px; fill: #FFFFFF;">Agent = LLM (大脑) + Perception (感知) + Memory (记忆) + Planning (规划) + Action (行动)</text>

  <!-- Action items -->
  <text x="960" y="610" text-anchor="middle" style="font-family: 'Microsoft YaHei', 'SimHei', 'PingFang SC', sans-serif; font-size: 24px; font-weight: bold; fill: #FFFFFF;">下一步行动建议</text>

  <path d="M 200,650 Q 200,638 212,638 L 860,638 Q 872,638 872,650 L 872,800 Q 872,812 860,812 L 212,812 Q 200,812 200,800 Z" fill="#FFFFFF" fill-opacity="0.04" stroke="#00F5D4" stroke-opacity="0.25" stroke-width="1"/>
  <text x="250" y="680" style="font-family: 'Microsoft YaHei', 'SimHei', 'PingFang SC', sans-serif; font-size: 18px; font-weight: bold; fill: #00F5D4;">立即开始</text>
  <text x="250" y="715" style="font-family: 'Microsoft YaHei', 'SimHei', 'PingFang SC', sans-serif; font-size: 15px; fill: #B4B4B4;">1. 安装 Cursor，体验 Composer Agent</text>
  <text x="250" y="745" style="font-family: 'Microsoft YaHei', 'SimHei', 'PingFang SC', sans-serif; font-size: 15px; fill: #B4B4B4;">2. 配置 MCP Server 扩展能力</text>
  <text x="250" y="775" style="font-family: 'Microsoft YaHei', 'SimHei', 'PingFang SC', sans-serif; font-size: 15px; fill: #B4B4B4;">3. 用 AI 完成一个真实项目任务</text>

  <path d="M 920,650 Q 920,638 932,638 L 1720,638 Q 1732,638 1732,650 L 1732,800 Q 1732,812 1720,812 L 932,812 Q 920,812 920,800 Z" fill="#FFFFFF" fill-opacity="0.04" stroke="#7B61FF" stroke-opacity="0.25" stroke-width="1"/>
  <text x="970" y="680" style="font-family: 'Microsoft YaHei', 'SimHei', 'PingFang SC', sans-serif; font-size: 18px; font-weight: bold; fill: #7B61FF;">深入学习</text>
  <text x="970" y="715" style="font-family: 'Microsoft YaHei', 'SimHei', 'PingFang SC', sans-serif; font-size: 15px; fill: #B4B4B4;">1. 学习 Prompt Engineering 技巧</text>
  <text x="970" y="745" style="font-family: 'Microsoft YaHei', 'SimHei', 'PingFang SC', sans-serif; font-size: 15px; fill: #B4B4B4;">2. 开发自定义 MCP Server</text>
  <text x="970" y="775" style="font-family: 'Microsoft YaHei', 'SimHei', 'PingFang SC', sans-serif; font-size: 15px; fill: #B4B4B4;">3. 构建多 Agent 协作系统</text>

  <!-- Q&A -->
  <text x="960" y="900" text-anchor="middle" style="font-family: 'Microsoft YaHei', 'SimHei', 'PingFang SC', sans-serif; font-size: 48px; font-weight: bold; fill: #FFFFFF;">Q &amp; A</text>
  <rect x="860" y="920" width="200" height="4" fill="url(#titleGrad)"/>
  <text x="960" y="965" text-anchor="middle" style="font-family: 'Microsoft YaHei', 'SimHei', 'PingFang SC', sans-serif; font-size: 20px; fill: #B4B4B4;">感谢聆听，欢迎提问与讨论</text>

  <text x="1870" y="1050" text-anchor="end" style="font-family: 'Microsoft YaHei', 'SimHei', 'PingFang SC', sans-serif; font-size: 16px; fill: #B4B4B4;">15/15</text>
</svg>